#define windowIcon_width 32
#define windowIcon_height 32
static unsigned char windowIcon_bits[] = {
   0x00, 0x00, 0x00, 0x00, 0x00, 0x00, 0x00, 0x00, 0x00, 0x00, 0x00, 0x00,
   0x00, 0x00, 0x00, 0x00, 0x08, 0x00, 0x00, 0x00, 0xf8, 0x03, 0x00, 0x00,
   0x08, 0x00, 0x00, 0x00, 0x08, 0x00, 0x00, 0x00, 0xf8, 0x01, 0x00, 0x00,
   0x08, 0x00, 0x00, 0x00, 0x08, 0x00, 0x00, 0x00, 0x08, 0x00, 0x00, 0x00,
   0x08, 0x10, 0x04, 0x00, 0xf8, 0x13, 0x04, 0x00, 0x00, 0x10, 0x04, 0x00,
   0x00, 0x90, 0x04, 0x00, 0x00, 0xd0, 0x05, 0x00, 0x00, 0x50, 0xc5, 0x07,
   0x00, 0x50, 0x03, 0x01, 0x00, 0x30, 0x06, 0x01, 0x00, 0x30, 0x06, 0x01,
   0x00, 0x10, 0x04, 0x01, 0x00, 0x00, 0x00, 0x01, 0x00, 0x00, 0x00, 0x01,
   0x00, 0x00, 0x00, 0x01, 0x00, 0x00, 0x00, 0x01, 0x00, 0x00, 0xc0, 0x07,
   0x00, 0x00, 0x00, 0x00, 0x00, 0x00, 0x00, 0x00, 0x00, 0x00, 0x00, 0x00,
   0x00, 0x00, 0x00, 0x00, 0x00, 0x00, 0x00, 0x00 };
